<?xml version="1.0" encoding="utf-8"?>
<!-- Generator: Adobe Illustrator 25.0.0, SVG Export Plug-In . SVG Version: 6.00 Build 0)  -->
<svg version="1.1" id="Layer_1" xmlns="http://www.w3.org/2000/svg" xmlns:xlink="http://www.w3.org/1999/xlink" x="0px" y="0px"
	 viewBox="0 0 566.93 566.93" style="enable-background:new 0 0 566.93 566.93;" xml:space="preserve">
<style type="text/css">
	.st0{fill:#18203A;}
	.st1{fill:#81CEEE;}
	.st2{fill:#19203A;}
	.st3{fill:#1D71B8;}
	.st4{fill:#1A1F36;}
	.st5{fill:#D0EAF1;}
	.st6{fill:#58BFE8;}
	.st7{fill:#0E90CF;}
	.st8{fill:#12182A;}
	.st9{fill:#1E3350;}
	.st10{fill:#C6E1EE;}
	.st11{fill:#FFFFFF;}
	.st12{fill:#878E9D;}
	.st13{fill:#F5F9FB;}
	.st14{fill:#37ADE0;}
	.st15{fill:#68C7ED;}
	.st16{fill:#C1E5F6;}
	.st17{fill:#1591D0;}
	.st18{fill:#C7E7F6;}
</style>
<path class="st0" d="M260.2,260.15c-9.71,2.41-19.26,5.42-28.95,7.89c-2.73,0.7-2.96,1.84-2.28,4.21
	c2.48,8.7,5.91,16.99,10.22,24.93c2.2,4.05,2.14,4.09-2.63,3.93c-1.44-0.83-2.06-2.31-2.77-3.67c-3.07-5.95-5.56-12.14-7.84-18.43
	c-0.42-1.16-0.2-2.35-0.53-3.49c-0.02-0.18-0.02-0.37-0.07-0.54c-1.01-3.07-1.97-3.99-1.97-3.99c-1.39-1.09-4.09,0.16-4.81,0.48
	c-9.81,4.44-29.12,8.12-30.51,8.38c-3.57,0.68-8.9,1.33-15.71,0.74c-0.11-0.91-0.23-1.82-0.34-2.72c11-1.84,20.54-3.67,28.31-5.24
	c14.52-2.95,19.17-4.29,21.14-8.31c1.79-3.66-0.91-4.92-2.12-17.76c-0.97-10.2-1.02-18.04-1.02-18.04
	c-0.05-6.42,0.28-9.75-1.7-10.89c-1.62-0.93-3.47,0.39-8.85,2.38c-4.43,1.64-8.19,2.74-10.88,3.46c-7.09,2.08-14.19,4.15-21.28,6.23
	c-2.04,0.33-5.09,1.16-7.33,3.59c-3.8,4.12-2.92,10.5-1,23.08c1.12,7.32,1.76,11.55,4.07,17.09c1.53,3.69,4.57,9.8,7.21,13.95
	c1.62,2.54,2.51,5.53,4.35,7.92c0.35,0.45,1.08,1.37,0.8,1.8c-0.38,0.6-2.53-0.01-3.83-0.64c-3.45-1.64-4.97-5.25-5.48-6.47
	c-8.48-20.1-8.46-19.91-8.84-21.32c-1.5-5.62-3.25-13.75-3.91-23.7c-0.53-7.99-0.07-14.13,0.13-18.89
	c0.21-5.12,0.81-11.44,2.24-18.57c0,0,1.78-8.71,4.72-16.87c4.07-11.33,13.87-27.43,26.4-41.01c22.02-23.87,48.01-36.91,62.96-43.23
	c3.83-1.16,8.21-2.23,13.09-3.01c7.18-1.15,13.62-1.37,19-1.19c2.3,0.3,4.6,0.6,6.9,0.89c0.9,1.12,1.8,2.25,2.69,3.37
	c-2.07-0.4-4.26-0.73-6.57-0.96c-9.52-0.95-17.89,0.16-24.46,1.73c-6.4,0.75-10.84,3.05-13.21,4.53c-1.04,0.65-2.84,1.78-4.82,3.73
	c-2.75,2.71-4.16,5.39-6.87,10.63c-1.67,3.23-2.78,5.82-3.57,7.66c-0.72,1.69-1.43,3.53-2.81,7.15c-3.12,8.16-3.81,10.3-2.92,11.06
	c0.61,0.52,1.69,0.17,2.08,0.05c3.59-1.12,10.99-2.16,23.02-3.15c1.84,0.38,3.9-0.57,5.69,0.81c-0.63,1.04-2.03,0.98-2.4,2.09
	c-0.02,0.05-0.05,0.09-0.09,0.11c-1.84,0.91-3.88,0.86-5.84,1.16c-6.83,1.03-13.63,2.23-20.43,3.43c-2.05,0.36-3.74,1.86-4.31,3.86
	c-3.48,12.09-6.13,24.34-7.75,36.81c-0.37,2.83-0.79,5.66-1.05,8.5c-0.32,3.57,0.11,3.83,3.57,3.13c9.55-1.92,19.02-4.24,28.61-6
	c3.34-0.61,6.69-1.25,10.09-1.47c2.36-0.15,3.56-1.15,3.85-3.7c0.79-6.86,1.18-13.77,2.53-20.55c0.2-1.01-0.09-2.31,1.33-2.75
	c1.06,0.92,0.72,2.17,0.77,3.33c0.29,5.89-0.8,11.68-1.19,17.52c-0.06,0.9-0.45,2.25,0.3,3.24c1.09,1.43,3.65,1.16,5.12,1.03
	c0.41-0.04,0.71-0.05,0.73-0.05c5.38-0.59,20.73-0.85,20.73-0.85c7.52-0.13,15.73-0.25,24.64-0.32c0.57,1.13,1.13,2.27,1.7,3.4
	c-2.91-0.09-5.86-0.15-8.85-0.17c-11.42-0.08-22.33,0.36-32.68,1.19c-2.43,0.39-4.41,0.58-5.79,0.68c-2.38,0.18-3.9,0.16-5.22,1.29
	c-0.68,0.58-1.06,1.26-1.25,1.61c-0.9,1.63-0.86,3.22-0.85,3.91c0.05,2.78-0.09,5.56,0,8.34c0.13,4.3-0.28,4.06-0.17,7.66
	c0.02,0.8,0.42,3.7,1.21,9.47c0,0,1.02,7.48,2.17,12.33c0.04,0.19,0.09,0.37,0.09,0.37c0.11,0.41,0.74,2.69,0.74,5.74
	c0,0.01,0,0.03,0,0.05c0,1.59-0.01,3.58-0.51,3.78c-0.68,0.28-2.49-2.69-2.85-3.3c-0.57-4.14-1.34-9.72-2.25-16.36
	c-0.83-6.06-1.24-9.1-1.26-9.96c-0.25-9.31-0.21-15.33,0.12-18.53c0.07-0.67,0.28-2.48-0.72-3.27c-1.02-0.81-2.79-0.15-3.35,0.05
	c-5.15,1.85-10.88,1.34-16.2,2.61c-3.95,0.94-9.57,2.11-16.68,3.06c-4.63,0.65-7.02,2.47-8.31,3.85c-1.21,1.29-3.33,4.23,0.05,30.93
	c2.74,21.64,2.86,9.65,3.08,13.29c0.04,0.69,0.11,2.36,1.27,3.3c1.52,1.22,4.02,0.44,4.86,0.18c4.31-1.3,18.67-4.77,38.65-9.55
	c1.29-0.31,5.82-2.1,11.87-2.04c3.09,0.03,6.63,0.5,6.65,1.07c0.02,0.84-7.54,1.05-18.48,3.66
	C265.4,258.33,266.72,258.53,260.2,260.15z"/>
<path class="st1" d="M308.3,342c1.48,1.5,2.79,2.67,3.7,3.45c-2.58,0.97-6.39,2.09-11.11,2.43c-1.46,0.1-4.13,0.29-7.18-0.14
	c-7.19-1.01-12.13-4.71-19.63-10.32c-3.2-2.4-5.69-4.6-7.66-6.51c-2.2-2.13-3.98-4.11-5.36-5.74c4.87-0.77,10.23-1.86,15.96-3.45
	c4.54-1.26,8.72-2.65,12.51-4.09c2.5,4.43,4.91,7.88,6.77,10.34c2.08,2.75,1.63,1.83,7.79,9.32
	C304.97,338.35,306.3,339.98,308.3,342z"/>
<path class="st2" d="M305.23,348.64c2.96-0.52,5.39-1.21,7.15-1.79c0.82-0.29,1.7-0.56,2.66-0.8c0.59-0.15,1.15-0.28,1.7-0.39
	c1.52-0.22,2.74,0.66,4.03,1.22c0.65,0.29,0.51,0.87-0.12,1.23c-12.68,4.21-23.41,5.59-30.85,6.05c-2.31,0.14-6.36,0.32-11.41,0.16
	c-4.42-0.15-15.14-0.74-28.11-4.21c-15.67-4.2-28.03-10.84-36.56-16.38c-0.17-0.5-0.36-0.93-0.53-1.3
	c-1.61-3.42-4.08-4.91-3.96-5.11c0.3-0.48,14.47,9.59,31.4,16.6c0,0,15.58,6.45,37.15,6.77c1.28,0.02,5.08,0.07,5.24-0.78
	c0.12-0.61-1.71-1.36-3.38-2.18c-2.94-1.45-5.77-3.68-11.43-8.15c-4.22-3.33-7.22-6.12-8.04-6.89c-3.25-3.04-5.9-5.87-7.97-8.24
	c-0.56-2.79-0.21-3.56,0.18-3.76c0.84-0.45,2.7,1.27,6.14,4.44c0.96,0.88,1.72,1.62,2.21,2.12c1.61,1.79,3.01,3.19,4.03,4.17
	c0.06,0.06,0.12,0.12,0.2,0.19c0,0,2.36,2.24,4.91,4.41c1.74,1.48,7,5.62,14.55,10.6c4,1.82,7.5,2.46,9.85,2.7
	C298.76,349.77,302.31,349.15,305.23,348.64z"/>
<path class="st3" d="M311.5,338.9c-2.9-4.73-3.41-9.99-3.01-15.32c0.32-4.24,1.65-8.27,3.57-12.1c0.51-1.02,0.93-2.02,2.29-2.02
	c1.18-0.5,2.23-0.32,3.28,0.45c1.08,0.79,2.17,1.61,3.62,1.71c0.59,0.04,0.95,0.52,0.3,1.1c-0.47,0.47-1.07,0.87-0.87,1.69
	c0.57,1.66,1.95,1.47,3.31,1.56c1.26,0.09,2.89-0.69,3.63,1.15c-1.28,0.02-2.57-0.03-3.85,0.07c-1.59,0.12-3.65-0.95-4.69,0.46
	c-1.68,2.27-2.78,4.97-3.03,7.88c-0.16,1.83,1.68,0.93,2.38,1.63c-0.04,0.23-0.48,0.13-0.4,0.39c0.29,1.02,2.01,0.5,2.03,1.85
	c-5.12-0.08-5.15-0.08-4.4,5.08c0.19,1.33,0.63,2.63,1.66,3.61c0.24,0.93-0.51,1.01-0.86,0.65
	C314.7,336.94,313.12,337.81,311.5,338.9z"/>
<path class="st3" d="M311.5,338.9c1.02-2.7,2.24-2.9,4.77-0.77c0.38,0.32,0.71,0.56,1.04-0.03c5.65,6.02,15.72,6.77,22.8,1.88
	c1.72-1.19,3.05-2.8,4.83-3.89c1.16,0.02,1.25,0.81,1.21,1.69c-6.25,3.87-12.86,6.86-20.08,8.47c-1.85,0.41-3.62,1.24-5.42,1.87
	c0.21-0.52,0.51-1.02-0.46-1.09c-1.28-0.09-2.5-0.39-3.44-1.36C315.4,343.09,312.38,341.82,311.5,338.9z"/>
<path class="st4" d="M308.43,335.87c-1.25-0.43-2.49-0.85-3.74-1.28c-2.22-2.39-4.54-5.11-6.86-8.17
	c-2.86-3.77-5.23-7.41-7.19-10.76c0.14-0.27,0.41-0.76,0.96-1.08c0.79-0.46,1.76-0.31,2.76-0.1c1.4,2.55,2.94,5.18,4.61,7.86
	C302.11,327.34,305.3,331.85,308.43,335.87z"/>
<path class="st3" d="M321.56,312.73c-2.68-0.48-4.34-3.21-7.21-3.26c4.62-1.93,9.24-3.86,13.86-5.78c0.12,0.18,0.25,0.36,0.37,0.54
	C326.24,307.05,323.9,309.89,321.56,312.73z"/>
<path class="st5" d="M266.3,109.87c3.75-1.11,6.59-1.36,12.26-1.87c5.45-0.49,6.41-0.13,6.98,0.51c1.27,1.44-0.11,3.57-2.81,11.87
	c-2.95,9.05-3.83,16-4.52,18.15c-0.19,0.6-0.19,1.26-0.27,1.89c-0.43,3.27-1.79,4.36-5.02,4.68c-10.54,1.07-21.11,1.9-31.5,4.11
	c-0.71,0.15-1.44,0.23-2.17,0.28c-1.28,0.08-1.88-0.3-1.41-1.78c4.88-15.32,7.47-19.13,7.47-19.13c4.42-7.59,6.65-11.4,7.59-12.24
	C257.1,112.58,261.8,111.2,266.3,109.87z"/>
<path class="st6" d="M244.26,297.97c-1.2-0.8-1.75-1.75-3.5-5.46c-3.27-6.92-4.43-9.87-4.43-9.87c-2.71-6.9-4.06-10.37-3.74-11.23
	c1.26-3.45,6.17-2.93,19.4-6.47c11.02-2.95,13.13-4.78,16.01-3.13c3.04,1.74,2.11,4.58,6.18,17.08c2.83,8.7,4.36,10.64,3.04,13.22
	c-1.63,3.2-5.94,4.1-12.63,5.51c-0.98,0.21-0.26,0.02-11.79,1.02C248.07,299.04,246.15,299.23,244.26,297.97z"/>
<path class="st7" d="M188.34,300.68c-0.75-0.89-0.25-0.58-4.43-8.17c-3.75-6.83-4.71-8.1-4.09-9.19c1.18-2.05,5.79,0.24,14.19-0.89
	c2.61-0.35,5.23-1.18,10.47-2.85c11.81-3.76,13.26-5.65,15.85-4.49c3.3,1.48,2.29,5.13,6.81,15.04c3.84,8.43,6.42,9.86,5.45,12.26
	c-1.64,4.05-10.54,3.79-23.49,3.4C193.16,305.31,189.83,302.45,188.34,300.68z"/>
<path class="st8" d="M273.45,200.6c-0.39-1.59-0.93-4.07-1.34-7.15c-0.4-3.04-1.32-11.53,0.51-22.16c0.81-4.67,1.21-7,2.11-9.94
	c1.5-4.91,3.37-8.65,1.87-10.1c-0.56-0.54-1.37-0.55-1.79-0.54c-5.22,0.16-19.72,3.27-28.58,3.5c-1.23,0.03-3.33,0.03-5.97-0.26
	c2.18-0.53,4.45-1.15,6.81-1.87c2.91-0.89,5.63-1.84,8.16-2.81c3.42-0.58,7.12-1.08,11.06-1.43c4.52-0.41,8.75-0.57,12.66-0.57
	c1.71-6.43,2.9-11.69,3.69-15.4c0.88-4.13,1.82-9.17,3.69-16.85c0.26-1.06,0.52-2.13,0.78-3.19c1.19-0.26,2.38-0.51,3.57-0.77
	c-0.23,0.9-0.45,1.81-0.68,2.71c-1.67,5.81-3.29,11.89-4.81,18.22c-1.26,5.22-2.37,10.32-3.37,15.28c-0.14,0.93-0.27,1.85-0.41,2.78
	c-0.88,2.3-2.05,5.63-3.17,9.7c-2.36,8.58-3.07,15.35-3.77,22.29C273.98,186.85,273.52,193.15,273.45,200.6z"/>
<path d="M281.41,150.06c0-0.47,0-0.95,0-1.42c0.14-0.45,0.27-0.91,0.41-1.36c1.73,0.06,4.84,0.17,8.73,0.31
	c12.04,0.42,16.87,0.55,26.42,0.91c2.06,0.08,5.4,0.2,9.56,0.37c0.39,1.23,0.79,2.46,1.18,3.69c-2.41-0.23-4.83-0.44-7.28-0.64
	c-12.4-1-24.43-1.5-36.04-1.6C283.39,150.23,282.4,150.14,281.41,150.06z"/>
<path d="M272.25,254.57c0.88,0.41,1.76,0.82,2.65,1.23c0.04,0.49,0.1,1.21,0.21,2.07c0.34,2.74,0.81,4.4,1.46,7.08
	c1.02,4.19,1.03,4.73,1.81,7.81c2.68,10.52,6.76,17.02,5.28,18.04c-0.84,0.58-3.54-0.55-3.54-0.55l0,0c0-0.01-3.87-11.29-6.07-22.7
	C273.47,264.6,272.73,260.14,272.25,254.57z"/>
<path class="st9" d="M288,253.79c-0.58,0.08-1,0.14-2.81,0.38c-2.72,0.37-4.93,0.69-6.38,0.89c-5.36,1.14-8.17,1.35-8.43,0.64
	c-0.17-0.48,0.81-1.37,2.94-2.68c4.18-0.49,7.56-1.06,9.84-1.49c5.6-1.05,8.4-1.91,15.91-3.5c3.29-0.69,5.99-1.21,7.7-1.53
	c2.05-0.37,4.1-0.73,6.15-1.1c0.76,0.62,1.52,1.24,2.28,1.86c-1.65,0.42-4.23,1.08-7.4,1.91c-5.34,1.4-7.38,1.97-11.22,2.88
	C292.98,252.93,290.64,253.41,288,253.79z"/>
<path class="st10" d="M234.71,301.72c0.71-1.11-0.14-1.93-0.59-2.77c-3.73-7.1-6.93-14.43-9.43-22.05c0.57-0.29,0.59-0.86,0.73-1.38
	c2.7,6.88,4.96,13.95,8.46,20.5c0.9,1.69,1.79,3.4,2.68,5.1C235.94,301.31,235.33,301.51,234.71,301.72z"/>
<path class="st11" d="M171.21,292.56c1.09,0.54,1.64,1.06,1.37,2.01c-0.04,0.14-0.49,0.32-0.64,0.26
	C171.02,294.42,171.08,293.64,171.21,292.56z"/>
<path class="st0" d="M266.29,147.84c1.67,0.01,3.33,0.03,5,0.04c-1.96,1.09-4.07,0.3-6.11,0.51
	C265.55,148.21,265.92,148.03,266.29,147.84z"/>
<path class="st12" d="M152.28,234.22c-0.21-0.23-0.43-0.45-0.64-0.68c0.42-0.97,1.03-1.78,2.31-2.68
	C153.47,232.37,153.21,233.44,152.28,234.22z"/>
<path class="st13" d="M188.71,166.12c-0.72,0.23-1.67,0.44-2,0.03c-1.47-1.8,10.08-13.49,13.47-16.92
	c5.01-5.07,10.54-10.63,18.94-17.02c11.4-8.67,20.75-13.34,22.88-14.34c1.4-0.66,2.76-1.43,4.35-2.02c-1.65,2.64-3.44,5.19-4.9,7.95
	c-4.4,8.33-8,17-11.01,25.89c-0.98,2.91-2.44,4.27-5.38,4.93c-8.01,1.77-15.76,4.44-23.48,7.2
	C197.28,163.25,192.99,164.69,188.71,166.12z"/>
<path class="st3" d="M213.72,333.73c-3.71-2.94-7.97-3.54-12.6-3.63c-14.1-0.28-27.89-2.61-40.85-8.33
	c-13.85-6.11-23.86-15.88-27.05-31.26c-2.08-9.99-0.63-19.71,2.76-29.3c3.6-10.18,9.39-19.05,15.66-27.67
	c0.53-0.08,0.82,0.07,0.64,0.68c-3.44,8.29-6.18,16.73-6.29,25.85c-0.2,17.27,7.61,29.92,22.21,38.63
	c11.56,6.9,24.31,9.79,37.58,10.87c27.54,2.24,54.09-2.78,80.25-10.76c11.38-3.47,22.43-7.81,33.4-12.38
	c2.84-1.18,5.57-2.62,8.36-3.95c1.13,0.5,0.13,1.22,0.22,1.81c0.26,1.69,0.39,3.38,1.32,4.97c1.65,2.82,1,3.82-2.24,3.93
	c0.51,0.74,1.28,0.59,1.99,0.61c1.16,0.02,2.66-0.8,2.78,1.43c0.04,0.73,0.85,0.42,1.35,0.26c1.65-0.55,3.31-1.04,4.84-1.94
	c0.78-0.46,1.79-1.17,2.39,0.33c-4.61,3.1-9.78,5.06-14.81,7.3c-9.74,4.35-19.77,7.99-29.81,11.61c-0.77,0.28-2.05,0.2-1.47,1.69
	c-1.39,0.59-2.96,0.63-4.27,1.46c-6.32,1.32-12.38,3.56-18.63,5.1c-4.82,1.19-9.6,2.54-14.47,3.53c-1.59,0.3-3.18,0.58-4.75,0.98
	c-9.25,1.8-18.52,3.46-27.9,4.43c-3.62,0.37-7.3,0.13-10.85,1.04c-0.15,1.15,1.41,1.09,1.47,2.09
	C214.76,333.75,214.16,333.57,213.72,333.73z"/>
<path class="st3" d="M385.93,270.84c6.21-3.69,11.36-8.7,16.73-13.43c2.74-2.42,5.48-4.87,7.86-7.82c-0.08,2.91-0.96,5.61-1.83,8.29
	c-0.9,2.79-1.88,5.57-2.95,8.3c-1.07,2.74-2.12,5.51-3.51,8.1c-1.39,2.6-3.9,4.34-5.85,6.52c-7.65,4.67-16.15,7.43-24.36,10.84
	c-2.14,0.89-3.18,0.46-4.11-1.76c-2.35-5.58-2.46-5.52,2.75-8.71C375.91,277.97,381.07,274.64,385.93,270.84z"/>
<path class="st3" d="M398.6,254.12c-4.68,5.14-10.35,9.17-15.45,13.85c-3.22,2.28-6.41,4.59-9.67,6.81c-0.8,0.55-1.46,1.44-2.59,1.4
	c-1.61,0.11-2.46,1.88-4.13,1.89c-0.85,0-2.07,0.04-1.43-1.16c0.75-1.41,0.31-1.59-0.92-1.84c-1.3-0.26-1.58-1.25-1.57-2.52
	c0.04-3.05-0.53-3.46-3.63-2.73c-1,0.24-2,0.24-3.01,0.27c-0.77,0.02-1.52-0.13-1.86-0.91c-0.37-0.87,0.26-1.34,0.9-1.77
	c0.69-0.46,1.34-0.97,1.72-1.73c6.47-5.1,13.22-9.86,19.26-15.49c0.99-0.93,2-1.83,3-2.75c0.45-0.28,0.94-0.35,1.12,0.22
	c0.25,0.79,0.35,1.8,0.05,2.44c-1.69,3.64,0.54,5.46,3.08,7.25c1.44,1.01,2.11,2.28,1.13,4.03c-0.28,0.51-0.87,1.18-0.06,1.68
	c0.64,0.4,1.25-0.06,1.74-0.47c3.25-2.69,6.72-5.11,9.71-8.12C397.32,253.13,397.42,253.23,398.6,254.12z"/>
<path class="st3" d="M340.46,293.88c-0.44-0.48-1-0.59-1.47-0.2c-1.61,1.31-3.56,1.82-5.48,2.42c-0.85,0.27-1.71,1.08-2.56,0.37
	c-0.8-0.66,0.59-1.42,0.13-2.3c-1.21,0.32-2.48,0.57-3.72,0.27c-0.89-0.22-1.89-0.75-1.52-1.87c0.33-0.99,1.23-0.94,2.04-0.37
	c0.44,0.31,0.88,0.78,1.41,0.18c0.49-0.55,0.43-1.15,0.1-1.78c-0.91-1.73-1.74-3.37-1.99-5.48c-0.14-1.13,1.56-1.7,0.41-2.65
	c2.36-1.22,4.73-2.41,7.07-3.66c1.16-0.62,2.26-1.37,3.39-2.06c1.11-1.06,2.5-1.59,3.89-2.13c0.29-0.04,0.57-0.07,0.86-0.11
	c1.35,0.51,1.43,1.95,1.82,2.96c0.47,1.21,1.2,2.23,1.69,3.36c1.32,3.01,3.93,4.06,6.68,5.04c0.44,0.16,0.86,0.36,0.58,0.97
	C349.45,289.42,345.09,291.91,340.46,293.88z"/>
<path class="st3" d="M353.77,286.85c-1.88-0.12-3.27-1.44-4.96-2.01c-0.69-0.24-1.53-0.58-1.63-1.34c-0.32-2.36-3.46-3.4-2.84-6.16
	c0.02-0.08-0.02-0.26-0.03-0.26c-2.23,0.06-0.93-1.68-1.31-2.56c4.65-2.95,9.31-5.89,13.96-8.84c0.67,1.55-0.92,1.61-1.55,2.28
	c-0.29,0.31-0.88,0.44-0.71,1c0.15,0.5,0.75,0.78,1.1,0.57c1.04-0.64,2.12,0.08,3.19-0.28c3.84-1.27,5.02-0.38,4.5,3.46
	c-0.17,1.24,0.16,1.72,1.27,1.87c0.87,0.12,2.05-0.3,2.47,0.73c0.56,1.39-1.85,0.69-1.58,2.14c1.24,0.09,2.46-0.09,3.42-1.01
	c0.6-0.57,1.09-1.01,1.82-0.27C365.56,280.33,359.78,283.77,353.77,286.85z"/>
<path class="st3" d="M394.03,288.5c-5.11,9.67-11.55,18.21-19.51,25.56c-0.47,0.43-1.04,0.75-1.59,1.09
	c-1.36,0.86-1.87,0.4-1.57-1.09c1.02-5.13,0.91-10.24-0.19-15.34c-0.18-0.81,0.07-1.16,0.83-1.4
	C379.54,294.95,386.9,292.14,394.03,288.5z"/>
<path class="st3" d="M368.08,302.86c1.41,10.6-1.4,19.62-9.93,26.49c-0.43,0.34-0.82,0.74-1.22,1.11c-1.34-0.79-2.13-2.1-3.09-3.24
	c-0.42-0.5-1.28-0.88-0.65-1.78c2.58-4.85,4.18-9.98,4.57-15.48c0.1-0.25,0.1-0.54,0.18-0.79c0.49-1.49-1.23-3.62,1.14-4.53
	c3.84-1.47,5.66-1.01,8.01,1.76c0.12,0.14,0.23,0.28,0.43,0.31c0.16,0.33,0.21-0.32-0.02-0.03c-0.09,0.12-0.17,0.07-0.23-0.14
	C366.89,305.18,366.24,303.75,368.08,302.86z"/>
<path class="st3" d="M357.07,299.57c-0.85-2.4-1.65-4.82-2.58-7.19c-0.43-1.09-0.21-1.74,0.82-2.19c0.33-0.15,0.65-0.34,0.97-0.51
	c6.59-3.63,6.6-3.63,9.5,3.44c0.34,0.83,0.87,1.63,0.65,2.61c-0.06,1.98-0.87,2.92-3.04,2.6c-1.43-0.21-2.89,0.39-4.36,0.43
	c-0.93,0.02-1.9-0.01-1.48-1.42C356.96,297.96,357.95,298.99,357.07,299.57z"/>
<path class="st3" d="M327.63,317.13c-1.67-0.69-3.45-0.42-5.16-0.38c-1.94,0.05-2.43-0.61-1.78-2.34
	c8.28,0.15,16.55,0.31,24.83,0.42c1.15,0.01,2.7,0.57,2.89-1.53c0.08-0.83,0.76-0.61,1.23-0.24c1.58,1.22,3.15,2.46,4.98,3.88
	c-1.82,0.87-3.43,1.66-5.04,2.41c-0.47,0.22-1.24,0.66-1.41-0.05c-0.58-2.49-2.55-1.65-4-1.71
	C338.66,317.36,333.14,317.27,327.63,317.13z"/>
<path class="st3" d="M357.07,299.57c0.04-0.73,0.07-1.46,0.11-2.31c0.63,0.42,0.94,0.96,1.94,0.85c1.85-0.21,3.63-1.16,5.64-0.43
	c1.59,0.58,0.79-1.55,1.68-1.95c0.53,2.38,2.07,4.53,1.64,7.13c-1.07,1.35-0.07,3.03-0.9,4.99c-1.76-4.35-4.93-3.13-8.02-2.59
	c-0.98,0.17-0.87,0.68-0.95,1.28c-0.17,1.14,0.38,2.38-0.45,3.43C357.52,306.51,357.3,303.04,357.07,299.57z"/>
<path class="st3" d="M346.15,337.77c-0.4-0.56-0.81-1.12-1.21-1.69c3.1-3.27,5.85-6.82,8.24-10.63c1.16,1.3,1.6,3.55,3.96,3.09
	c0.63,0.77-1.77,1-0.22,1.92C353.91,333.75,349.88,335.55,346.15,337.77z"/>
<path class="st3" d="M320.05,329.4c-0.54-0.76-1.93-0.27-2.2-1.56c-0.1-0.49-0.35-0.44,0.58-0.68c7.86,0.58,15.75,0.63,23.57,1.72
	c-0.03,1.7-0.97,0.51-1.44,0.74c0.28,0.72,2.21-0.2,2.01,1.49C335.06,330.54,327.56,329.97,320.05,329.4z"/>
<path class="st3" d="M344.29,302.81c-2.1,0.76-4.29,0.53-6.45,0.64c-0.6,0.26-1.34,0.45-1.72-0.1c-0.54-0.78-0.04-1.52,0.54-2.13
	c2.89-0.24,5.75-0.81,8.67-0.63c1.74-0.96,2.13,1.31,3.53,1.28C347.41,303.09,345.69,302.08,344.29,302.81z"/>
<path class="st3" d="M344.29,302.81c1.15-1,2.63-0.2,3.87-0.7c-0.86-0.64-1.52-1.68-2.83-1.53c2.82-0.76,5.72-0.95,8.61-1.1
	c0.92-0.05,1.64,0.16,1.62,1.3c-0.02,1.02-0.72,1.12-1.49,1.16C350.79,302.13,347.6,303.17,344.29,302.81z"/>
<path class="st3" d="M336.65,301.21c-0.03,0.97-0.77,2.31,1.18,2.23c-1.89,0.9-3.91,0.56-5.88,0.62c-0.43,0.01-0.95,0-1.09-0.57
	c-0.13-0.54,0.29-0.82,0.66-1.06C333.09,301.45,334.75,300.83,336.65,301.21z"/>
<path class="st3" d="M342.57,331.1c-0.68-0.41-1.37-0.81-2.26-1.34c0.47-0.53,1.47-0.14,1.69-0.88c0.98,0.03,1.97,0.08,2.95,0.09
	c1,0.02,1.74,0.17,1.65,1.49c-0.1,1.5-1.14,1.12-1.95,1.07C343.95,331.51,343.26,331.26,342.57,331.1z"/>
<path class="st3" d="M375.87,158.34c2.39,0.15,4.92-0.74,7.05,1.29c0.6,0.57,1.64,0.27,2.42-0.49c9.51-9.27,15.43-20.06,13.07-33.76
	c-0.81-4.69-2.75-9.28-5.75-13.26c5.53,2.29,9.32,6.15,10.93,11.98c4.06,14.65,0.89,27.85-8.22,39.77
	c-2.9,3.79-5.9,7.54-10.03,10.14c0.68-2.36-1.17-3.7-2.3-5.21c-1.21-1.63-1.81-2.4-1.83-3.19c-0.03-1.25,1.73-1.92,1.48-2.97
	c-0.07-0.29-0.25-0.49-0.35-0.6c0.72-0.63,1.45-1.26,2.17-1.88c-3.17-0.04-6.34-0.09-9.51-0.13
	C375.29,159.46,375.58,158.9,375.87,158.34z"/>
<path class="st3" d="M403.07,214.82c-0.82,1.48-1.53,2.47-3.74,1.83c-1.75-0.51-3.92-0.7-5.79,0.59c-1.46,1.01-2.04-0.15-2.42-1.44
	c-0.66,1.14,0.25,2.51-0.79,3.45c0.21-2.08,0.23-4.73-0.37-7.7c-0.2-0.99-0.45-1.91-0.73-2.75c-2.33,1.65-4.66,3.3-6.99,4.94
	c-1.02-0.76-2.04-1.52-3.05-2.28c-0.45-0.4-1.06-0.16-1.55-0.4c-0.36-0.17-0.61-0.46-0.62-0.82c-0.01-0.62,0.47-0.66,0.95-0.67
	c0.36-0.01,0.73,0,1.09-0.01c-0.46-0.04-0.93,0.02-1.39-0.1c0.3-0.34,0.59-0.67,0.89-1.01c0.3-0.27,0.6-0.54,0.89-0.8
	c0.63-0.79,1.27-1.59,1.9-2.38c2.63,1.18,5.26,2.35,7.89,3.53c-0.39-1.35-2.61-8.87-4-10.65c-0.11-0.14-0.26-0.36-0.55-0.53
	c-1.09-0.62-2.65,0.4-3.87-0.07c-1.35-0.38-2.75-0.67-3.39-2.15c1.43-0.32,2.84-0.83,4.28-0.92c2.62-0.16,2.03-1.33,1.06-2.76
	c-0.88-1.29-1.75-2.58-2.64-3.86c-2.23-3.2-2.24-3.2,1.04-5.59c3.56-2.6,3.56-2.59,6.53,0.54c6.8,7.17,12.46,15.01,14.54,24.93
	C402.72,210.07,403.29,212.4,403.07,214.82z"/>
<path class="st3" d="M339.85,198.2c0.19-0.03,0.38-0.07,0.57-0.1c2.61,0.88,4.07,4.13,2.99,6.89c1.58-1.73,2.84-3.59,4.66-4.86
	c1.04-0.73,2.24-1.14,1.66,1.03c-2.97,3.99-6.36,7.62-9.37,11.58c-0.47,0.75-0.82,1.58-1.58,2.1c-2.83,5.41-4.6,11.17-5.6,17.17
	c-0.05,2.46-0.45,4.6-2.37,6.57c-2.82,2.9-2.23,7.2-3.6,10.72c-0.75,1.94-1.18,3.72-0.82,5.73c1.93-0.59,1.21,1.02,1.34,1.74
	c0.2,1.1,0.71,2.1,0.85,3.19c0.12,0.89,0.56,2.12-1.18,1.95c-2.57-5.49-4.76-11.17-5.14-17.23c-0.9-14.39,2.21-27.72,11.42-39.23
	c0.45-0.56,0.82-1.18,1.22-1.77C336.37,201.67,337.86,199.71,339.85,198.2z"/>
<path class="st3" d="M339.43,125.71c5.11,12.39,12.55,23.19,21.98,32.71c1.17,1.18,3.02,2.92,6.42,6.74c0.98,1.1,1.56,1.8,1.62,2.75
	c0.17,3.2-5.83,5.73-6.81,6.13c-11.24-10.37-22.54-24.77-27.7-43.76c-0.42-1.53-0.78-3.05-1.1-4.55c-0.34-0.59-0.1-1.71,0.07-1.6
	c0.89,0.6,2.85,0.08,3.47,0.33C338.3,124.86,338.99,125.34,339.43,125.71z"/>
<path class="st3" d="M385.43,238.66c0.8,0.39-0.03,1.91,1.16,1.88c0.93-0.02,0.85-1.03,1.04-1.71c0.19-0.66,0.77-0.63,1.32-0.76
	c4.19-0.98,7.74,0.28,10.75,3.17c0.88,0.84,1.61,1.63,2.91,1.88c1.83,0.35,1.3,2.14,1.71,3.33c1.47,0.18,1.54-2.38,3.26-1.61
	c-2.54,3.53-5.32,6.82-8.97,9.27c-2.45-0.39-3.06,1.99-4.51,3.07c-2.74,2.06-5.32,4.33-8.02,6.45c-0.74,0.58-1.79,0.79-2.56,0.14
	c-0.77-0.65-0.38-1.51,0.18-2.19c1.95-2.37,0.23-3.53-1.62-4.29c-1.64-0.67-2.98-1.13-1.41-3.07c-1.1-0.69-1.15,1.41-2.11,0.5
	c-0.69-0.66,0.12-1.11,0.27-1.67c0.44-1.66,0.77-3.34,1.1-5.02c0.11-0.54-0.39-0.48-0.7-0.58
	C381.76,244.84,384.57,242.44,385.43,238.66z"/>
<path class="st3" d="M327.42,261.9c1.04-0.28,0.84-0.93,0.62-1.72c-0.41-1.45-1.42-2.76-0.9-4.45c0.19-0.63-1.41,0.29-1.22-1.13
	c0.21-1.52-2.04-2.92,0.47-4.81c0.95-0.72,1.47-3.93,1.37-6.18c-0.14-3.2,2.07-5.2,4.11-7.14c0.64-0.61,0.77-1.11,0.84-1.83
	c0.08-0.88-0.28-1.86,0.48-2.62c0.05,2.8,0.08,5.6,0.18,8.4c0.03,0.96-0.01,2.15,1.6,1.76c0.6,0.65,0.52,1.28-0.03,1.92
	c-1.39,0.86-0.45,2-0.25,2.94c1.29,6.22,4.58,11.57,7.61,17.01c3.2,5.75,2.84,4.39-1.94,7.15c-5.06,2.93-5.16,2.94-8.54-1.89
	C330.17,266.95,328.87,264.37,327.42,261.9z"/>
<path class="st3" d="M382.9,161.59c1.29,1.08,0.23,1.79-0.5,2.33c-1.39,1.01-1.02,2.25-0.15,3.02c1.18,1.04,1.7,2.65,2.82,3.48
	c1.78,1.31,1.3,2.31,0.28,3.59c-5.94,5.31-12.54,9.68-19.37,13.74c-0.75-0.34-1.56-0.63-1.67-1.6c-0.22-1.98-1.08-3.65-2.48-5
	c-1.11-1.07-0.14-1.96,0.05-2.93c2.56-2.77,5.85-4.63,8.77-6.95C374.72,168.02,378.81,164.81,382.9,161.59z"/>
<path class="st3" d="M361.89,178.21c-0.02,1.41,0.32,2.62,1.39,3.68c0.96,0.96,1.95,2.26,1.49,3.64c-0.15,0.43-0.08,0.51-0.02,0.6
	c0.96,1.27,17.27-9.32,17.28-9.3c0.02,0.03-24.14,16.87-26.08,18.71c-0.44,0.41-0.99,0.89-1.91,1.67c-0.45,0.38-1.86,0.6-0.83,1.78
	c1.16,0.44,2.33-0.06,3.5,0.04c0.53,0.04,1.25-0.2,1.4,0.44c0.21,0.87-0.67,0.97-1.24,1.08c-0.93,0.19-1.68,0.66-2.43,1.19
	c-3.01,0.17-7.42,0.94-11.25,4.01c-0.48,0.39-0.92,0.78-1.33,1.19c0.39-0.31,1.93-1.59,1.76-2.96c-0.21-1.66-2.91-3.32-6.74-2.85
	c2.16-2.47,4.51-4.99,7.05-7.53C350.06,187.47,356.17,182.39,361.89,178.21z"/>
<path class="st3" d="M382.96,122.44c-1.15-0.29-2.3-0.58-3.46-0.87c-1.18-0.1-2.36-0.2-3.55-0.3c-12.5-1-24.72-1.48-36.64-1.53
	c0.02-0.67,0.03-1.35,0.04-2.03c0.06-3.57,0.05-7.09-0.01-10.54c0.84,0.72,2.12,1.67,3.84,2.46c1.69,0.78,3.08,1.08,3.53,1.16
	c13.04,2.35,25.98,5.11,38.55,9.37c0.63,0.61,1.62-0.08,2.31,0.68C386.65,123.17,384.83,122.86,382.96,122.44z"/>
<path class="st3" d="M397.67,134.21c-1.86,1.06-3.29,1.88-4.72,2.69c-1.39,0.8-2.82,1.85-3.19-0.96c-0.14-1.06-1.14-0.72-1.81-0.74
	c-7.1-0.23-14.19-0.41-21.29-0.63c-6.63-0.21-13.25-0.46-19.88-0.71c-0.46-0.02-0.91-0.13-1.37-0.18c-1-0.12-1.5-0.74-1.46-1.68
	c0.05-1.19,1.05-0.82,1.69-0.8c5.99,0.17,11.98,0.4,17.97,0.58c7.93,0.24,15.86,0.43,23.79,0.67c1.36,0.04,2.56,0.03,2.82-1.77
	c0.21-1.45,1.08-1.25,1.93-0.47C393.71,131.65,395.43,132.87,397.67,134.21z"/>
<path class="st3" d="M393.56,147.22c-1.76,0.99-3.25,1.86-4.77,2.69c-1.34,0.73-2.81,2.04-3.07-1c-0.11-1.27-1.45-0.85-2.29-0.87
	c-9.56-0.29-19.12-0.55-28.69-0.81c-0.55-0.02-1.12,0.05-1.64-0.09c-0.84-0.22-1.59-0.76-1.58-1.68c0.01-1.35,1.19-0.89,1.88-0.87
	c9.93,0.28,19.85,0.61,29.78,0.93c1.57,0.05,3.19,0.32,3.38-2.07c0.09-1.19,0.94-0.83,1.6-0.33
	C389.84,144.38,391.52,145.66,393.56,147.22z"/>
<path class="st3" d="M339.43,125.71c-0.59,0.1-1.09,2.77-1.79,0.05c-0.2-0.79-1.44-1.37-1.51-1.01c-0.34,1.69-2.53-1.42-2.29,0.99
	c-2.95-8.99-0.56-23.15,4.86-26.14C334.68,108.66,337.27,117.17,339.43,125.71z"/>
<path class="st3" d="M336.77,212.85c6.51-0.56,13.16-1.22,19.95-1.99c5.71-0.65,11.3-1.35,16.78-2.09c3.07-0.34,6.15-0.68,9.22-1.03
	c-1.18,1.24-2.36,2.48-3.53,3.72c-14.82,1.65-29.64,3.3-44.47,4.96C335.4,215.23,336.09,214.04,336.77,212.85z"/>
<path class="st3" d="M329.96,242.47c15.52-1.82,31.04-3.63,46.55-5.45c0.16,0.58,0.31,1.16,0.47,1.74c-0.2,0.23-0.4,0.46-0.6,0.7
	c-15.05,1.85-30.1,3.71-45.15,5.56C330.81,244.17,330.38,243.32,329.96,242.47z"/>
<path class="st3" d="M360.29,225.27c3.24,0.4,6.48,0.8,9.73,1.19c-13.17,1.42-26.34,2.84-39.5,4.26c0.55-0.82,1.11-1.65,1.66-2.47
	C341.54,227.26,350.92,226.27,360.29,225.27z"/>
<path class="st3" d="M366.01,253.65c-2.02,3.6-5.23,2.91-7.89,3.1c-5.33,0.39-10.61,1.12-15.91,1.77c-1.2,0.15-2.36,0.46-2.62-1.38
	c-0.13-0.89,0.04-1.19,0.86-1.25C348.85,255.26,357.17,253.64,366.01,253.65z"/>
<path class="st3" d="M344.6,203.32c-0.34-0.57-0.68-1.13-1.02-1.7c3.21-0.88,6.42-1.76,9.63-2.63c8.08-1.19,16.15-2.39,24.23-3.58
	c3.01,0.48,6.02,0.96,9.04,1.45C372.51,199.01,358.55,201.16,344.6,203.32z"/>
<path class="st3" d="M375.49,239.74c-2.68-0.39-5.37-0.78-8.05-1.18c1.68-0.26,3.39-0.54,5.11-0.84c1.02-0.18,2.03-0.36,3.03-0.54
	c0.1-0.79,0.2-1.59,0.3-2.38c2.77,1.18,5.53,2.35,8.3,3.53c-2.55,1.55-5.11,3.09-7.66,4.64
	C376.17,241.9,375.83,240.82,375.49,239.74z"/>
<path class="st3" d="M382.09,121.79c-0.17-0.6-0.34-1.19-0.51-1.79c4.82,0.41,9.65,0.83,14.47,1.24c0.07,0.82,0.14,1.64,0.21,2.46
	c-1.74-0.09-3.49-0.17-5.23-0.26c1.58,1.3,3.15,2.6,4.73,3.9C391.2,125.49,386.64,123.64,382.09,121.79z"/>
<path class="st3" d="M387.19,158.49c-0.15,0.57-0.3,1.15-0.45,1.72c-8.64-0.06-17.28-0.13-25.91-0.19
	c-0.55-0.64-1.11-1.28-1.66-1.91C368.51,158.23,377.85,158.36,387.19,158.49z"/>
<path class="st3" d="M414.44,195.92c3.64-12,4.25-24.1,0.75-36.2c-1.51-5.21-3.54-10.28-6.86-14.69c-0.7-0.92-1.01-1.86-0.97-3.06
	c0.1-2.84,0.03-5.68,0.03-9.06c4.45,3.04,8,6.3,11.17,9.95c8.91,10.24,14.88,21.9,16.28,35.56c0.89,8.68,0.17,17.25-2.92,25.51
	c-1.35,0.9-0.65,3.39-2.39,3.65c-1.86,0.28-1.97-2.12-3.24-2.96c-1.79-1.18-3.05-2.85-4.26-4.59c-1.62-2.3-3.2-2.6-5.6-1.29
	c-0.54,0.3-1.06,0.92-1.72,0.49c-0.65-0.42-0.48-1.1-0.23-1.72C414.7,196.99,414.62,196.45,414.44,195.92z"/>
<path class="st3" d="M385.43,238.66c1.44-3.74,2.73-7.86,3.72-12.36c0.19-0.85,0.36-1.69,0.51-2.52c-2.65,1.55-5.3,3.09-7.96,4.64
	c-0.37-1.05-0.74-2.1-1.11-3.15c-4.69,0.53-9.38,1.05-14.07,1.58c-2.12-0.39-4.37-0.23-6.24-1.59c5.72-0.64,11.44-1.27,17.16-1.91
	c0.99-0.18,1.99-0.37,2.98-0.55c0.25-0.98,0.51-1.96,0.76-2.94c2.82,1.31,5.65,2.61,8.47,3.92c0.22-1.51,0.45-3.02,0.67-4.53
	c0.63-1.17-0.1-2.52,0.35-3.51c4.26,0.43,8.37,0.57,12.39-0.93c0.18,0.68-0.44,1.67,0.34,2.01c0.9,0.39,1.19-0.67,1.53-1.24
	c1.46-2.43,2.84-4.91,4.24-7.37c1.71,0.87,3.26,2,4.51,3.43c1.11,1.26,2.18,2.48,3.79,3.12c0.61,0.24,1.03,0.75,1.35,1.34
	c1.45,2.59,2.85,2.96,5.52,1.5c1.07-0.59,1.07-0.59,1.41,0.6c-4.93,9.66-11.03,18.51-18.21,26.64c-0.56,0.17-0.9,0.63-1.27,1.02
	c-1.32,1.4-2.4,1.8-2.95-0.6c-0.13-0.55-0.38-1.11-0.92-1.31c-2.06-0.74-3.42-2.43-5.14-3.63c-3.63-2.54-6.25-2.47-9.81,0.29
	c-0.46,0.36-0.94,0.64-1.49,0.31C385.07,240.37,385.55,239.43,385.43,238.66z"/>
<path class="st3" d="M425.77,218.21c-0.18-0.24,0-1.22-0.7-0.39c-0.66,0.78-1.25,1.24-2.46,1.33c-2.49,0.19-4.44,0.25-4.4-3.05
	c0-0.31-0.79-0.7-1.27-0.94c-3.2-1.63-5.15-4.64-7.74-6.94c1.75-4.1,3.5-8.2,5.25-12.3c1.55,0.77-0.02,1.96,0.38,3.13
	c1.55-0.89,2.63-2.47,4.81-1.75c2.01,0.66,2.91,2.12,3.83,3.66c1.42,2.37,4.3,3.32,5.47,6.02c0.4,0.93,0.86-0.4,1.3-0.85
	c0.65-0.68-0.35-2.65,1.69-2.19C430.38,208.91,428.83,213.88,425.77,218.21z"/>
<path class="st3" d="M362.12,190.6c0.95-1.4,2.16-2.45,3.85-2.86C365.05,189.19,363.7,190.05,362.12,190.6z"/>
<path class="st11" d="M374.23,118.68c-11.49,0.35-22.77-1-34.11-1.33c-2.25-0.06-1.29-1.28-1.37-2.1c-0.37-3.7-0.34-3.68,4.16-2.96
	c9.95,1.59,20,2.82,29.56,5.79C373.05,118.27,373.64,118.48,374.23,118.68z"/>
<path class="st14" d="M251.87,327.32c6.39,6.7,14.07,13.42,23.26,19.5c1.36,0.9,2.71,1.76,4.06,2.58c-3.58-0.2-8.6-0.61-14.55-1.53
	c-6.68-1.03-16.17-2.55-27.45-7.02c-4.78-1.89-11.22-4.85-18.38-9.45c6.75-0.41,13.92-1.1,21.45-2.17
	C244.26,328.66,248.14,328.02,251.87,327.32z"/>
<path class="st15" d="M225.35,217.07c1.13-1.56,3.01-1.23,8.65-1.97c1.34-0.17,3.93-0.66,9.09-1.64c4.59-0.86,6.88-1.3,9.42-1.93
	c1.46-0.36,4.39-1.12,8.36-1.98c4.26-0.92,5.03-0.95,5.68-0.45c1.48,1.12,0.73,3.72,0.38,9.32c0,0-0.27,4.39,0,10.09
	c0.16,3.32,0.42,3.98,1.53,13.28c0.98,8.16,0.91,8.71,0.51,9.45c-1.62,3.04-4.83,2.16-18,5.62c-4.28,1.13-8.62,2.05-12.89,3.19
	c-5.22,1.4-6.71,1.93-8.17,1.02c-1.53-0.95-1.51-2.54-3.06-12.77c-0.8-5.22-0.94-5.72-1.28-8.55c-0.36-3.01-0.67-5.68-0.77-9.32
	c-0.09-3.48,0.16-2.69,0.13-7.53C224.91,218.58,224.71,217.94,225.35,217.07z"/>
<path class="st16" d="M265.28,196.85c-1.73,1.85-4.09,2.07-6.81,2.38c-6.04,0.7-12.01,1.95-18.04,2.72
	c-9.65,1.24-11.01,1.92-12.26,0.68c-1.87-1.85-0.11-4.65,2.04-16.34c0.75-4.09,1.54-9.17,3.4-17.02c1.11-4.66,1.84-7.11,4.09-8.85
	c1.63-1.27,3.08-1.41,8.51-2.04c8.41-0.98,12.61-1.47,13.96-1.7c8.15-1.38,10.95-3.19,12.26-1.7c1.06,1.22-0.22,3.08-2.04,9.53
	c-1.19,4.23-2.4,8.5-2.72,13.62c-0.26,4.02,0.21,5.7-0.34,11.91C267.01,193.56,266.65,195.39,265.28,196.85z"/>
<path class="st17" d="M214.89,220.68c3.39,2.32,0.47,7.54,1.7,22.47c1.12,13.57,4.17,16.8,1.36,21.11c-1.56,2.4-3.6,3.08-20.09,6.81
	c-16.99,3.85-19.54,4.2-22.13,2.38c-3.34-2.34-4.05-7.12-5.45-16.68c-1.72-11.7-2.57-17.56,0.68-21.79
	c3.38-4.39,7.4-2.56,20.28-6.49C206.58,223.82,211.14,218.11,214.89,220.68z"/>
<path class="st18" d="M191.11,163.02c-1.7-2.22,12.41-16.54,26.39-27.55c9.62-7.58,22.85-16.5,24.17-14.96
	c0.41,0.48-0.84,1.66-3.06,5.49c-2.91,5.01-4.47,9.34-7.54,17.9c-2.13,5.93-1.99,6.32-3.06,7.51c-2.66,2.96-5.23,2.42-14.03,4.9
	c-4.7,1.32-4.45,1.62-14.82,4.81C191.83,163.36,191.34,163.33,191.11,163.02z"/>
<path class="st0" d="M186.38,172.21c-0.48-2.49,39.36-13.41,40.21-11.11c0.41,1.11-8.13,5.37-14.43,7.66
	C199.9,173.22,186.65,173.62,186.38,172.21z"/>
<path class="st11" d="M219.7,209.62c1.16-1.86,0.84-3.29,1.61-10.71c0,0,0.31-2.74,0.82-6.65c0.73-5.68,1.7-10.02,2.49-13.41
	c1.85-7.93,3.31-13.87,3.31-13.87c1.21-3.63,2.02-6.18,0.84-7.32c-0.41-0.4-1.07-0.61-5.49,0.26c-4.22,0.83-6.3,1.37-9.83,2.55
	c-2.24,0.75-5.17,1.81-8.57,3.24c-2.62,0.91-5.25,1.83-7.87,2.74c-2.14,0.6-4.27,1.21-6.41,1.81c-1.45,0.12-3.81,0.52-6.13,2.04
	c-1.26,0.82-2.22,1.73-3.53,3.5c-2.95,3.99-5.29,8.37-6.94,11.82c-0.72,1.52-1.34,3.41-2.68,7.15c-1.04,2.89-1.86,5.31-2.43,7.02
	c-0.64,2.72-1.28,5.45-1.91,8.17c-0.51,2.68-1.02,5.36-1.53,8.04c-0.3,1.46-0.9,4.83-0.64,8.04c0,0,0.27,3.22,1.66,4.09
	c0.02,0.01,0.05,0.03,0.05,0.03c0.04,0.02,0.11,0.06,0.19,0.09c0.45,0.16,1.39,0.15,4.66-1.06c3.47-1.28,7.02-2.35,10.5-3.58
	c1.28-0.45,1.45-0.48,8.09-2.49c1.9-0.57,10.96-3.33,21.32-7.02C217.27,211.95,218.66,211.29,219.7,209.62z"/>
<path class="st16" d="M207.66,210.29c-9.07,4.19-16.33,6.48-18.23,7.07c-12.04,3.75-18.1,5.58-19.81,3.67
	c-0.86-0.96,0.02-5.15,1.81-13.49c1.68-7.8,2.45-10.25,3.21-12.34c0.66-1.8,1.63-3.91,3.57-8.13c3.24-7.03,4.89-10.58,6.39-12.01
	c2.09-2,2.98-1.55,11.46-4.53c7.13-2.5,8.22-3.42,16.8-6.36c9.79-3.36,11.17-3.12,11.91-2.38c1.57,1.57-0.43,4.71-2.72,14.3
	c-0.82,3.44-1.34,6.49-2.38,12.6c-1.95,11.44-1.73,14.17-4.44,17.2C214.53,206.66,213.56,207.56,207.66,210.29z"/>
</svg>
